# xmcd
#
# Track frame offsets: 
#        150
#        18787
#        39348
#        63813
#        79180
#        95603
#        112387
#        134881
#        155460
#        167582
#
# Disc length: 2528 seconds
#
# Revision: 9
# Processed by: cddbd v1.5.2PL0 Copyright (c) Steve Scherf et al.
# Submitted via: ExactAudioCopyFreeDBPlugin 1.0
#
DISCID=7f09de0a
DTITLE=Lonnie Mack - Strike Like Lightning
DYEAR=1985
DGENRE=Blues
TTITLE0=Hound Dog Man
TTITLE1=Satisfy Susie
TTITLE2=Stop
TTITLE3=Long Way from Memphis
TTITLE4=Double Whammy
TTITLE5=Strike Like Lightning
TTITLE6=Falling Back in Love with You
TTITLE7=If You Have to Know
TTITLE8=You Ain't Got Me
TTITLE9=Oreo Cookie Blues
EXTD=YEAR: 1985
EXTT0=
EXTT1=
EXTT2=
EXTT3=
EXTT4=
EXTT5=
EXTT6=
EXTT7=
EXTT8=
EXTT9=
PLAYORDER=
